<svg width="42" height="42" fill="none" xmlns="http://www.w3.org/2000/svg"><mask id="a" style="mask-type:alpha" maskUnits="userSpaceOnUse" x="0" y="0" width="42" height="42"><path fill="#D9D9D9" d="M0 0h42v42H0z"/></mask><g mask="url(#a)" fill="#13141A"><path d="M38.31 11.648h-1.549c.071-.396.028-.804-.123-1.177a2.153 2.153 0 0 0-.733-.935 2.182 2.182 0 0 0-2.289-.168c-.362-1.948-3.24-2.268-4.022-.44a2.158 2.158 0 0 0-3.078.939 2.157 2.157 0 0 0-2.95.72c-.194.321-.3.687-.306 1.06h-4.43c.251-2.482-1.872-5.14-1.77-7.598h1.093a.592.592 0 0 0 .417-.171.582.582 0 0 0 .173-.414V.584a.582.582 0 0 0-.173-.413.592.592 0 0 0-.417-.171H5.942a.592.592 0 0 0-.417.171.582.582 0 0 0-.173.414v2.88c0 .818 1.12.537 1.635.584-.318 2.79-3.625 4.711-3.703 7.599a2.24 2.24 0 0 0-1.746.51 2.204 2.204 0 0 0-.774 1.633v14.418c0 .568.229 1.113.634 1.515.405.401.955.627 1.528.628h2.402c-.24 1.738 1.526 3.118 3.146 2.28.361 1.948 3.24 2.268 4.021.44a2.158 2.158 0 0 0 3.099-.939 2.157 2.157 0 0 0 2.928-.73c.193-.317.3-.68.307-1.05h4.431c-.247 2.493 1.876 5.131 1.77 7.598h-1.094a.592.592 0 0 0-.416.171.582.582 0 0 0-.173.414v2.88c0 .155.062.303.172.413.111.11.261.171.418.171h12.211a.592.592 0 0 0 .417-.171.582.582 0 0 0 .173-.413v-2.88c0-.822-1.12-.538-1.64-.585.334-2.81 3.653-4.734 3.716-7.657.472-.113.892-.38 1.193-.758.301-.378.465-.845.466-1.327V13.791a2.138 2.138 0 0 0-.635-1.514 2.176 2.176 0 0 0-1.528-.63Zm-3.68-1.36c.787 0 1.03.693.952 1.36h-1.9c-.09-.667.182-1.345.948-1.36ZM30.6 9.8c0-.25.1-.49.28-.667a.956.956 0 0 1 1.345 0 .939.939 0 0 1 .278.667v1.847h-1.902V9.8Zm-3.078.904a.94.94 0 0 1 .299-.628.956.956 0 0 1 1.301 0 .94.94 0 0 1 .3.628v.943h-1.9v-.943Zm-2.13 0a.96.96 0 0 1 .67.277.943.943 0 0 1 .28.666H24.44a.94.94 0 0 1 .282-.66.956.956 0 0 1 .67-.272v-.011ZM6.52 1.157h11.043V2.88H6.531L6.52 1.157Zm.51 5.865a6.245 6.245 0 0 0 1.137-2.985H15.9c-.184 2.478 1.966 5.128 1.77 7.599h-6.26a.592.592 0 0 0-.417.171.582.582 0 0 0-.172.413 3.209 3.209 0 0 1-.767 2.528 3.286 3.286 0 0 1-2.41 1.12.593.593 0 0 0-.417.171.582.582 0 0 0-.173.413v4.427a1.28 1.28 0 0 1-.38.912 1.305 1.305 0 0 1-1.42.28 1.305 1.305 0 0 1-.703-.698 1.28 1.28 0 0 1-.1-.494v-8.631c-.176-1.875 1.62-3.78 2.591-5.214l-.011-.012Zm.417 24.679c-.786 0-1.03-.694-.951-1.36h1.899c.09.678-.17 1.356-.936 1.371l-.012-.011Zm4.03.487c0 .25-.1.49-.278.667a.955.955 0 0 1-1.346 0 .939.939 0 0 1-.279-.667v-1.836h1.903v1.836Zm2.131.039c-1.085-.047-.947-1.095-.94-1.875h1.9c.011.78.153 1.828-.948 1.886l-.012-.011Zm3.079-.943a.96.96 0 0 1-.66-.277.942.942 0 0 1-.28-.655h1.903a.936.936 0 0 1-.287.664.951.951 0 0 1-.676.268Zm18.871 9.547H24.526v-1.71h11.032v1.71Zm2.104-11.063c.07 3.117-3.641 5.097-3.751 8.183h-7.702c.189-2.482-1.966-5.124-1.77-7.599h6.244c.617-.027.61-.588.59-1.056a3.155 3.155 0 0 1 .936-2.236 3.212 3.212 0 0 1 2.256-.928.592.592 0 0 0 .417-.171.582.582 0 0 0 .173-.413V21.12c.018-.33.164-.641.406-.869a1.312 1.312 0 0 1 1.795 0c.242.228.387.539.406.869v8.647Zm1.631-1.559a.964.964 0 0 1-.452.819V21.12c.06-2.136-2.752-3.285-4.238-1.738a2.431 2.431 0 0 0-.727 1.738v3.897a4.388 4.388 0 0 0-2.661 1.396 4.316 4.316 0 0 0-1.122 2.77H2.926a.987.987 0 0 1-.695-.286.97.97 0 0 1-.288-.689V13.791c0-.698.657-1.064 1.31-.974v8.062c-.067 2.136 2.751 3.29 4.234 1.738a2.44 2.44 0 0 0 .727-1.738v-3.897a4.388 4.388 0 0 0 2.661-1.396 4.316 4.316 0 0 0 1.121-2.77H38.31c.261 0 .511.103.695.286a.97.97 0 0 1 .288.689v14.418Z"/><path d="M9.948 26.846H5.285a.593.593 0 0 1-.417-.172.582.582 0 0 1-.173-.413v-1.45a.582.582 0 0 0-.173-.413.593.593 0 0 0-1.006.413v1.45c0 .465.186.911.518 1.24.332.329.782.514 1.25.514h4.664a.592.592 0 0 0 .417-.172.582.582 0 0 0-.417-.997Zm26.003-12.86h-4.666a.592.592 0 0 0-.418.171.582.582 0 0 0 .418.998h4.666a.596.596 0 0 1 .416.173c.11.109.173.257.174.412v1.453c0 .155.062.304.173.413a.592.592 0 0 0 1.007-.413v-1.457a1.75 1.75 0 0 0-.521-1.237 1.782 1.782 0 0 0-1.249-.513ZM23.87 20.844v.324c0 .155.063.304.173.413a.592.592 0 0 0 1.007-.413v-.323a.582.582 0 0 0-.173-.414.592.592 0 0 0-1.007.413Zm-7.092-.584a.592.592 0 0 0-.417.171.582.582 0 0 0-.173.413c-.047.425.079.9.59.909a.592.592 0 0 0 .417-.172.582.582 0 0 0 .173-.413c.047-.425-.075-.9-.59-.908Zm3.322-1.208h1.038a.166.166 0 0 1 .154.104c.008.02.012.042.011.064 0 .155.062.303.173.413a.592.592 0 0 0 1.007-.413 1.326 1.326 0 0 0-.367-.921 1.35 1.35 0 0 0-.907-.416c0-.483.122-1.259-.59-1.274-.712-.016-.59.779-.59 1.274a1.35 1.35 0 0 0-.904.413c-.237.247-.369.575-.37.916v1.032c0 .354.142.694.394.944s.594.392.951.393h1.038c.044 0 .086.017.117.048.03.03.048.072.048.116v1.048a.163.163 0 0 1-.048.116.166.166 0 0 1-.117.048h-1.038c-.137 0-.18-.14-.165-.254a.582.582 0 0 0-.173-.413.592.592 0 0 0-.417-.171.608.608 0 0 0-.568.425.595.595 0 0 0-.021.249c0 .34.133.668.37.914.237.247.56.394.903.41 0 .488-.122 1.26.59 1.279.712.02.59-.78.59-1.278.343-.017.667-.164.904-.41.237-.247.369-.574.37-.915v-1.037c0-.353-.142-.692-.394-.942a1.351 1.351 0 0 0-.951-.39h-1.038a.17.17 0 0 1-.165-.168v-1.033a.162.162 0 0 1 .1-.158.165.165 0 0 1 .065-.013Z"/><path d="M20.618 14.13c-6.066-.078-9.204 7.525-4.88 11.726a6.936 6.936 0 0 0 4.88 2.001c1.83 0 3.585-.72 4.88-2.001 4.324-4.201 1.186-11.804-4.88-11.726Zm4.042 10.911a5.746 5.746 0 0 1-4.042 1.658 5.746 5.746 0 0 1-4.042-1.658c-3.59-3.483-.994-9.8 4.042-9.742 5.036-.062 7.631 6.25 4.042 9.735v.007Z"/></g></svg>