<svg width="50" height="50" fill="none" xmlns="http://www.w3.org/2000/svg"><mask id="a" style="mask-type:alpha" maskUnits="userSpaceOnUse" x="0" y="0" width="50" height="50"><path fill="#D9D9D9" d="M0 0h50v50H0z"/></mask><g fill="#16191E" mask="url(#a)"><path d="m47.497 43.212.002-.109a3.514 3.514 0 0 0-.978-2.437 3.281 3.281 0 0 0-2.355-1.01v-15.95l3-2.327a.856.856 0 0 0 .246-.306.887.887 0 0 0-.255-1.08L40 14.584v-9.41a.82.82 0 0 0 .59-.253.878.878 0 0 0 .243-.61V.862a.878.878 0 0 0-.244-.61A.82.82 0 0 0 40 0h-8.333a.82.82 0 0 0-.589.252.877.877 0 0 0-.244.61V4.31c0 .229.088.448.244.61a.82.82 0 0 0 .59.252v3.11l-6.175-4.668a.815.815 0 0 0-.984 0L2.843 19.994a.855.855 0 0 0-.25.303.886.886 0 0 0 .242 1.082l3 2.328v15.948a3.281 3.281 0 0 0-2.356 1.011 3.513 3.513 0 0 0-.976 2.546 3.337 3.337 0 0 0-1.927 1.402 3.542 3.542 0 0 0-.55 2.371A3.486 3.486 0 0 0 1.13 49.14 3.27 3.27 0 0 0 3.335 50h43.33a3.27 3.27 0 0 0 2.205-.86 3.485 3.485 0 0 0 1.104-2.155 3.541 3.541 0 0 0-.55-2.37 3.337 3.337 0 0 0-1.927-1.403ZM32.5 1.724h6.666v1.724H32.5V1.724Zm.833 7.759v-4.31h5v8.15l-5.079-3.84h.079ZM25 5.378l20.265 15.32-1.94 1.506L25.49 8.786a.815.815 0 0 0-.98 0L6.675 22.204 4.735 20.7 25 5.378ZM1.668 46.552c0-.453.173-.887.48-1.21a1.642 1.642 0 0 1 1.162-.514h.002c.042.006.085.011.128.014a.81.81 0 0 0 .402-.078.84.84 0 0 0 .318-.266.878.878 0 0 0 .116-.81 1.747 1.747 0 0 1-.108-.585c0-.457.176-.895.489-1.218a1.641 1.641 0 0 1 1.177-.506v6.897h-2.5c-.441 0-.865-.183-1.177-.506a1.757 1.757 0 0 1-.489-1.218Zm35.831 1.724h-10V29.31h10v18.966Zm1.667 0V28.448a.877.877 0 0 0-.244-.61.82.82 0 0 0-.59-.252H26.668a.82.82 0 0 0-.59.253.878.878 0 0 0-.244.61v19.827H7.501V23.715L25 10.549l17.499 13.166v24.56h-3.333Zm7.5 0h-2.5v-6.897c.441 0 .865.183 1.177.506.313.323.489.761.49 1.218-.003.2-.04.398-.109.585a.892.892 0 0 0 .116.81.84.84 0 0 0 .318.267c.126.06.264.086.402.077a1.66 1.66 0 0 0 .128-.014h.002a1.64 1.64 0 0 1 1.175.514c.31.326.483.766.48 1.223a1.754 1.754 0 0 1-.498 1.215c-.314.321-.74.5-1.182.496Z"/><path d="M21.664 27.588h-10a.82.82 0 0 0-.588.252.877.877 0 0 0-.245.61v12.069c0 .229.088.448.245.61a.82.82 0 0 0 .589.252h10a.82.82 0 0 0 .588-.252.877.877 0 0 0 .244-.61V28.45a.877.877 0 0 0-.244-.61.82.82 0 0 0-.589-.252Zm-.833 6.034h-3.333v-4.31h3.333v4.31Zm-5-4.31v4.31h-3.333v-4.31h3.333Zm-3.333 6.034h3.333v4.31h-3.333v-4.31Zm5 4.31v-4.31h3.333v4.31h-3.333ZM30.773 38.26a.873.873 0 0 0-.45-1.125.824.824 0 0 0-1.09.466.873.873 0 0 0 .451 1.127.824.824 0 0 0 1.09-.467Z"/></g></svg>