<svg width="14" height="14" fill="none" xmlns="http://www.w3.org/2000/svg"><mask id="a" style="mask-type:alpha" maskUnits="userSpaceOnUse" x="0" y="0" width="14" height="14"><path fill="#fff" d="M0 0h14v14H0z"/></mask><g mask="url(#a)" fill="#fff" fill-opacity=".6"><path d="M13.3 9.567v-.7h.233A.467.467 0 0 0 14 8.4v-.233a.933.933 0 0 0-.933-.934h-1.515A1.743 1.743 0 0 0 10.01 6.3H7.443a1.759 1.759 0 0 0-1.328.51 1.96 1.96 0 0 1-.11-.089A3.799 3.799 0 0 0 3.5 5.833h-.933v-4.2A.233.233 0 0 1 2.8 1.4h1.246c.063 0 .123.025.166.07l.332.332A1.632 1.632 0 0 0 4.2 2.8a.467.467 0 0 0 .467.467H7a.476.476 0 0 0 .467-.419 1.66 1.66 0 0 0-1.42-1.668 1.67 1.67 0 0 0-.157-.011l-.687-.69A1.624 1.624 0 0 0 4.046 0H2.8a1.635 1.635 0 0 0-1.633 1.633v4.2H.933A.933.933 0 0 0 0 6.767V7a.467.467 0 0 0 .467.467H.7v2.1a3.032 3.032 0 0 0 1.4 2.552v.481h-.233a.7.7 0 0 0-.7.7v.233H.233a.233.233 0 0 0 0 .467h13.534a.234.234 0 0 0 0-.467h-.934V13.3a.7.7 0 0 0-.7-.7H11.9v-.481a3.03 3.03 0 0 0 1.4-2.552Zm.233-1.4V8.4H11.76v-.35a1.73 1.73 0 0 0-.036-.35h1.343a.467.467 0 0 1 .466.467Zm-2.338-.611c.065.157.098.324.098.494v2.683a.233.233 0 0 1-.233.234H9.333a.233.233 0 0 1-.233-.234V8.05a1.745 1.745 0 0 0-.562-1.283h1.472a1.283 1.283 0 0 1 1.185.789Zm-3.028.494a.814.814 0 0 0-.813-.817 2.071 2.071 0 0 1-.815-.177 1.283 1.283 0 0 1 2.094.994v2.683c.001.08.016.159.043.234H8.4a.233.233 0 0 1-.233-.234V8.05ZM7 2.8H4.667A1.167 1.167 0 1 1 7 2.8ZM1.633 1.633A1.168 1.168 0 0 1 2.8.467h1.246a1.161 1.161 0 0 1 .826.342l.444.444a1.626 1.626 0 0 0-.437.223l-.337-.337a.697.697 0 0 0-.496-.206H2.8a.7.7 0 0 0-.7.7v4.2h-.467v-4.2ZM.467 6.767A.467.467 0 0 1 .933 6.3H3.5a3.333 3.333 0 0 1 2.198.773c.436.376.984.596 1.559.624.114-.01.229.021.323.088.076.067.12.163.12.265v.35h-.233a3.342 3.342 0 0 1-2.2-.773A2.56 2.56 0 0 0 3.591 7H.467v-.233Zm.7 2.8v-2.1H3.59c.503 0 .99.182 1.37.511.701.588 1.59.904 2.506.889H7.7v1.866a.7.7 0 0 0 .7.7h2.66a.7.7 0 0 0 .7-.7V8.867h1.073v.7a2.57 2.57 0 0 1-2.566 2.566H3.733a2.57 2.57 0 0 1-2.566-2.566ZM4.242 12.6h5.516a1.318 1.318 0 0 1 .494.933H3.748a1.318 1.318 0 0 1 .494-.933Zm-2.609.933V13.3a.233.233 0 0 1 .234-.233h.466a.233.233 0 0 0 .234-.234v-.466c.331.137.684.214 1.043.227a1.878 1.878 0 0 0-.332.94H1.633Zm10.034-.466h.466a.233.233 0 0 1 .234.233v.233h-1.644a1.884 1.884 0 0 0-.333-.94c.358-.012.712-.09 1.043-.226v.466a.233.233 0 0 0 .234.234Z"/><path d="M3.967 11.434a.233.233 0 0 0-.234-.234A1.635 1.635 0 0 1 2.1 9.567a.233.233 0 0 0-.467 0 2.102 2.102 0 0 0 2.1 2.1.234.234 0 0 0 .234-.233ZM5.6 3.967v1.167a.233.233 0 1 0 .467 0V3.967a.233.233 0 1 0-.467 0Zm-.917-.087-.466 1.167a.233.233 0 1 0 .433.173l.467-1.166a.233.233 0 1 0-.434-.174Zm2.3 0a.234.234 0 0 0-.433.174l.467 1.166a.234.234 0 1 0 .433-.173L6.983 3.88Z"/></g></svg>