<svg width="14" height="14" fill="none" xmlns="http://www.w3.org/2000/svg"><mask id="a" style="mask-type:alpha" maskUnits="userSpaceOnUse" x="0" y="0" width="14" height="14"><path fill="#fff" d="M0 0h14v14H0z"/></mask><g mask="url(#a)" fill="#fff" fill-opacity=".6"><path d="M13.107 6.338V1.94c0-1.07-.87-1.94-1.941-1.94H2.778C1.708 0 .838.87.838 1.94v4.455A3.004 3.004 0 0 0 0 8.478v3.335a1.112 1.112 0 0 0 2.222 0v-.345h9.556v.345a1.112 1.112 0 0 0 2.222 0V8.478c0-.836-.342-1.593-.893-2.14ZM2.778.547h8.388c.768 0 1.394.625 1.394 1.393v3.968a3.007 3.007 0 0 0-.533-.26V4.74c0-.806-.655-1.461-1.462-1.461H8.188c-.489 0-.922.242-1.188.612a1.46 1.46 0 0 0-1.188-.612H3.435c-.806 0-1.462.655-1.462 1.46v.91a3.008 3.008 0 0 0-.589.294V1.94c0-.768.626-1.393 1.394-1.393Zm.239 4.915c-.17 0-.336.015-.497.042V4.74c0-.504.41-.915.915-.915H5.81c.505 0 .916.41.916.915v.722h-3.71Zm4.256-.722c0-.504.41-.915.915-.915h2.377c.505 0 .915.41.915.915v.764a3.026 3.026 0 0 0-.497-.042h-3.71V4.74ZM3.017 6.01h7.966a2.472 2.472 0 0 1 2.47 2.468v.81h-2.742a.273.273 0 1 0 0 .547h2.742v1.087H.547V9.835h7.43a.273.273 0 1 0 0-.546H.546v-.811a2.472 2.472 0 0 1 2.47-2.469Zm-1.342 5.803a.564.564 0 0 1-1.128 0v-.345h1.128v.345Zm11.214.563a.564.564 0 0 1-.564-.563v-.345h1.128v.345c0 .31-.253.563-.564.563Z"/><path d="M9.341 9.835a.274.274 0 1 0 0-.547.274.274 0 0 0 0 .547Z"/></g></svg>