<svg width="14" height="14" fill="none" xmlns="http://www.w3.org/2000/svg"><mask id="a" style="mask-type:alpha" maskUnits="userSpaceOnUse" x="0" y="0" width="14" height="14"><path fill="#D9D9D9" d="M0 0h14v14H0z"/></mask><g mask="url(#a)"><path d="M4.758 2.982h8.233L8.494 6.583a.595.595 0 0 1-.312.124.606.606 0 0 1-.313-.124L4.655 4.01a.341.341 0 0 0-.115-.063c.156-.223.238-.49.233-.764a1.874 1.874 0 0 0-.015-.2ZM2.665.666a.31.31 0 0 1 .064.026c.073.035.19.127.303.254a4.092 4.092 0 0 1 .59.92c.337.59.483 1.042.487 1.326.005.285-.07.407-.307.546l-.61.359c-.399.234-.587.652-.633 1.043-.047.39.022.77.192 1.07L4.26 8.86c.17.3.462.55.819.705.356.154.808.198 1.205-.035l.611-.359c.237-.138.38-.14.62.005.241.146.554.499.89 1.09a4.131 4.131 0 0 1 .49.979c.052.163.073.31.066.393-.007.082-.009.073-.03.086l-.465.272c-1.167.516-2.238.4-3.194-.106-.958-.508-1.79-1.425-2.371-2.502l-.005-.006-1.272-2.235-.004-.007C.989 6.09.623 4.9.669 3.805.715 2.711 1.15 1.714 2.175.947l.465-.27c.011-.007.015-.012.025-.011ZM2.669 0a.683.683 0 0 0-.361.091L1.816.38l-.03.019C.601 1.282.057 2.51.004 3.777-.05 5.043.365 6.35 1.05 7.492l1.267 2.227-.003-.006c.633 1.172 1.54 2.189 2.648 2.775 1.108.587 2.429.723 3.774.125a.241.241 0 0 0 .032-.017l.493-.288c.227-.132.342-.39.36-.614a1.69 1.69 0 0 0-.093-.656 4.513 4.513 0 0 0-.557-1.119c-.362-.635-.712-1.076-1.116-1.322a1.254 1.254 0 0 0-1.295-.01l-.61.359c-.18.105-.392.093-.614-.003a1.178 1.178 0 0 1-.501-.421l-1.508-2.65a1.209 1.209 0 0 1-.109-.652c.028-.242.125-.432.305-.538l.594-.348c.015.081.06.155.125.204l3.214 2.575a1.248 1.248 0 0 0 .745.276c.257-.017.503-.113.705-.276l4.427-3.546v5.858c0 .09-.1.207-.295.207H9.974a.326.326 0 0 0-.236.098.338.338 0 0 0-.098.24c0 .186.15.338.334.337h3.065c.5 0 .961-.37.961-.882V3.19c0-.513-.46-.882-.961-.882H4.576a6.063 6.063 0 0 0-.373-.768A4.505 4.505 0 0 0 3.524.491a1.645 1.645 0 0 0-.512-.41v.001A.84.84 0 0 0 2.669 0Z" fill="#16191E"/></g></svg>