<svg width="9" height="15" fill="none" xmlns="http://www.w3.org/2000/svg"><path d="M2.842 8.469H1.118c-.27 0-.368-.106-.368-.401V5.794c0-.292.103-.403.37-.403h1.722V3.74c0-.746.123-1.459.473-2.112A2.94 2.94 0 0 1 4.864.238C5.292.068 5.736 0 6.19 0l1.705.001c.244 0 .353.118.353.384v2.139c0 .269-.104.377-.354.38-.466.005-.932.002-1.398.022-.47 0-.717.248-.717.774-.011.557-.005 1.114-.005 1.69h2.008c.284 0 .38.106.38.415v2.262c0 .304-.091.401-.377.402H5.77v6.102c0 .325-.095.429-.392.429H3.207c-.263 0-.365-.11-.365-.394V8.469Z" fill="#3D6AD6"/></svg>