<svg width="14" height="14" fill="none" xmlns="http://www.w3.org/2000/svg"><mask id="a" style="mask-type:alpha" maskUnits="userSpaceOnUse" x="0" y="0" width="14" height="14"><path fill="#D9D9D9" d="M0 0h14v14H0z"/></mask><g mask="url(#a)" fill="#fff"><path d="M3.938 8a1.313 1.313 0 1 0 0-2.625 1.313 1.313 0 0 0 0 2.626Z"/><path d="M12.252 11.501a1.75 1.75 0 0 1-1.75 1.75H1.75A1.75 1.75 0 0 1 0 11.502v-7a1.75 1.75 0 0 1 1.748-1.75A1.75 1.75 0 0 1 3.498 1h8.752A1.75 1.75 0 0 1 14 2.75v7.001a1.75 1.75 0 0 1-1.748 1.75Zm-.002-9.626H3.499a.875.875 0 0 0-.875.875H10.5a1.75 1.75 0 0 1 1.75 1.75v6.126a.876.876 0 0 0 .874-.875v-7a.875.875 0 0 0-.875-.876Zm-10.5 1.75a.875.875 0 0 0-.875.875v7.001l2.316-2.06a.438.438 0 0 1 .551-.054L6.07 10.94l3.246-3.247a.438.438 0 0 1 .505-.082l1.555 1.704V4.5a.875.875 0 0 0-.875-.875h-8.75Z"/></g></svg>