<svg width="15" height="15" fill="none" xmlns="http://www.w3.org/2000/svg"><g clip-path="url(#a)"><path d="M14.434 6.196H8.315a.49.49 0 0 0-.489.489v1.954c0 .27.22.49.49.49h3.445a4.6 4.6 0 0 1-1.98 2.32l1.47 2.543C13.606 12.629 15 10.237 15 7.56c0-.38-.029-.653-.085-.96a.491.491 0 0 0-.482-.404Z" fill="#167EE6"/><path d="M7.5 12.065A4.564 4.564 0 0 1 3.55 9.781l-2.543 1.465a7.49 7.49 0 0 0 10.242 2.75v-.004l-1.47-2.543c-.671.39-1.45.616-2.28.616Z" fill="#12B347"/><path d="M11.25 13.995v-.003l-1.47-2.543c-.671.39-1.449.616-2.28.616V15c1.36 0 2.644-.366 3.75-1.005Z" fill="#0F993E"/><path d="M2.935 7.5c0-.831.227-1.609.616-2.28L1.008 3.753A7.422 7.422 0 0 0 0 7.5c0 1.364.366 2.644 1.008 3.747L3.551 9.78A4.531 4.531 0 0 1 2.935 7.5Z" fill="#FFD500"/><path d="M7.5 2.935c1.1 0 2.11.39 2.898 1.04.195.16.478.15.656-.03l1.385-1.384a.493.493 0 0 0-.028-.72A7.478 7.478 0 0 0 7.5 0a7.49 7.49 0 0 0-6.492 3.753L3.55 5.22A4.564 4.564 0 0 1 7.5 2.935Z" fill="#FF4B26"/><path d="M10.398 3.975c.195.16.478.15.656-.03l1.385-1.384a.493.493 0 0 0-.028-.72A7.477 7.477 0 0 0 7.5 0v2.935c1.1 0 2.11.39 2.898 1.04Z" fill="#D93F21"/></g><defs><clipPath id="a"><path fill="#fff" d="M0 0h15v15H0z"/></clipPath></defs></svg>