<svg width="42" height="42" fill="none" xmlns="http://www.w3.org/2000/svg">
    <defs>
        <linearGradient id="golden-gradient" gradientTransform="rotate(45)">
            <stop offset="0%" stop-color="#d39f51" />
            <stop offset="25%" stop-color="#e5b566" />
            <stop offset="50%" stop-color="#f0cb7b" />
            <stop offset="75%" stop-color="#f8e292" />
            <stop offset="100%" stop-color="#fff7a9" />
        </linearGradient>
    </defs>
    <mask id="a" style="mask-type:alpha" maskUnits="userSpaceOnUse" x="0" y="0" width="42" height="42">
        <path fill="#D9D9D9" d="M0 0h42v42H0z"/>
    </mask>
    <g mask="url(#a)" fill="url(#golden-gradient)">
        <path d="M31.853 17.632c0-6.228-5.104-11.288-11.367-11.288-6.262 0-11.367 5.06-11.367 11.288 0 6.219 5.096 11.288 11.367 11.288 6.272 0 11.367-5.07 11.367-11.288Zm-11.367 9.83c-5.46 0-9.908-4.408-9.908-9.84 0-5.43 4.448-9.83 9.908-9.83 5.46 0 9.909 4.409 9.909 9.84s-4.449 9.83-9.909 9.83Z"/>
        <path d="M34.415 29.309c.41-.208.775-.48 1.057-.86.739-1.005.565-2.318.401-3.594-.109-.824-.218-1.683-.027-2.263.173-.543.757-1.15 1.313-1.729.866-.905 1.841-1.928 1.841-3.222 0-1.295-.966-2.336-1.832-3.241-.556-.588-1.14-1.186-1.313-1.73-.191-.578-.082-1.438.028-2.262.164-1.276.328-2.589-.402-3.594-.738-1.014-2.06-1.258-3.336-1.502-.82-.154-1.668-.308-2.151-.661-.483-.344-.884-1.087-1.276-1.81-.593-1.087-1.276-2.318-2.489-2.716-1.167-.38-2.36.18-3.518.724-.775.362-1.568.733-2.206.733-.639 0-1.432-.371-2.206-.733C17.14.306 15.947-.256 14.78.125 13.559.514 12.92 1.7 12.291 2.84c-.392.715-.802 1.467-1.276 1.81-.492.354-1.33.517-2.151.662-1.276.235-2.598.488-3.336 1.502-.739 1.005-.565 2.318-.401 3.594.109.824.218 1.684.027 2.263-.173.543-.757 1.15-1.313 1.729C2.975 15.305 2 16.328 2 17.622c0 1.295.984 2.318 1.841 3.223.556.588 1.14 1.186 1.313 1.729.191.58.082 1.44-.027 2.263-.164 1.276-.329 2.589.4 3.594.283.38.648.66 1.058.86l-3.974 6.834a.723.723 0 0 0 .054.806.736.736 0 0 0 .766.262l5.87-1.566 1.578 5.83c.072.28.319.489.61.534.037 0 .064.009.091.009a.724.724 0 0 0 .63-.362l3.728-6.418c.793-.09 1.595-.462 2.37-.824.774-.362 1.568-.733 2.206-.733.638 0 1.43.371 2.206.733.774.362 1.577.742 2.37.824l3.728 6.418a.725.725 0 0 0 .629.362c.027 0 .064 0 .091-.01a.729.729 0 0 0 .61-.533l1.578-5.83 5.87 1.566a.736.736 0 0 0 .766-.262.723.723 0 0 0 .055-.806l-4.002-6.816ZM11.799 39.41l-1.303-4.843a.73.73 0 0 0-.894-.516l-4.876 1.295 3.245-5.585c.282.063.574.117.866.171.82.154 1.668.308 2.15.661.484.344.885 1.086 1.277 1.81.529.97 1.121 2.046 2.106 2.553l-2.57 4.454Zm8.687-7.187c-.966 0-1.914.443-2.826.869-.902.425-1.832.86-2.443.66-.665-.217-1.166-1.14-1.659-2.027-.473-.86-.957-1.747-1.704-2.29-.757-.544-1.768-.734-2.744-.915-.993-.19-2.024-.38-2.434-.923-.392-.534-.264-1.566-.136-2.553.127-.986.255-2-.037-2.896-.282-.851-.975-1.585-1.64-2.282-.712-.742-1.45-1.511-1.45-2.226 0-.715.738-1.485 1.45-2.227.674-.706 1.367-1.43 1.64-2.281.292-.897.164-1.91.037-2.897-.128-.996-.256-2.019.136-2.553.401-.552 1.431-.742 2.434-.923.976-.181 1.987-.371 2.744-.914.747-.534 1.23-1.43 1.705-2.29.492-.897.993-1.811 1.659-2.028.62-.2 1.55.235 2.442.66.912.426 1.86.87 2.826.87.967 0 1.915-.444 2.826-.87.903-.425 1.832-.86 2.443-.66.666.217 1.167 1.14 1.66 2.027.473.86.956 1.747 1.704 2.29.756.544 1.768.734 2.744.915.993.19 2.023.38 2.433.923.392.534.265 1.566.137 2.553-.127.987-.255 2 .037 2.897.282.85.975 1.584 1.64 2.28.711.743 1.45 1.512 1.45 2.228 0 .715-.739 1.484-1.45 2.226-.674.706-1.367 1.43-1.64 2.282-.292.896-.164 1.91-.037 2.896.128.996.255 2.019-.137 2.553-.4.552-1.43.742-2.433.923-.976.181-1.988.371-2.744.915-.748.534-1.23 1.43-1.705 2.29-.492.896-.994 1.81-1.659 2.028-.62.199-1.55-.236-2.443-.661-.911-.426-1.86-.87-2.826-.87Zm10.884 1.828a.73.73 0 0 0-.893.516l-1.304 4.843-2.58-4.436c.976-.497 1.55-1.538 2.106-2.552.392-.715.803-1.467 1.277-1.81.492-.354 1.33-.517 2.15-.662.293-.054.584-.108.867-.171l3.245 5.585-4.868-1.313Z"/>
        <path d="M27.323 13.196a.735.735 0 0 0-1.03 0l-7.384 7.332-4.22-4.191a.735.735 0 0 0-1.03 0 .723.723 0 0 0 0 1.023l4.74 4.707a.726.726 0 0 0 .52.208c.2 0 .382-.072.519-.208l7.885-7.848a.723.723 0 0 0 0-1.023Z"/>
    </g>
</svg>
