<svg width="50" height="50" fill="none" xmlns="http://www.w3.org/2000/svg"><mask id="a" style="mask-type:alpha" maskUnits="userSpaceOnUse" x="0" y="0" width="50" height="50"><path fill="#D9D9D9" d="M0 0h50v50H0z"/></mask><g mask="url(#a)"><path d="m22.194 36.406-3.713-.998a.106.106 0 0 1-.072-.125l1.066-3.986a2.32 2.32 0 0 0-.232-1.75 2.307 2.307 0 0 0-1.394-1.076l-1.226-.33a1.032 1.032 0 0 0-1.267.732l-.704 2.64c-.494 1.853-1.751 2.42-4.546 1.974l.054-.2a1.43 1.43 0 0 0-1.001-1.745l-3.896-1.047A1.417 1.417 0 0 0 3.524 31.5L.048 44.524a1.427 1.427 0 0 0 1.001 1.742l3.897 1.047a1.402 1.402 0 0 0 1.078-.143 1.4 1.4 0 0 0 .657-.861l.156-.584c.918.381 1.686.813 2.205 1.246a7.897 7.897 0 0 0 3.138 1.625l4.925 1.325a2.298 2.298 0 0 0 2.216-.592 2.316 2.316 0 0 0 .61-2.218 2.296 2.296 0 0 0 1.6-1.06 2.315 2.315 0 0 0 .245-1.907 2.297 2.297 0 0 0 1.56-1.34 2.314 2.314 0 0 0-.322-2.344 2.308 2.308 0 0 0 .844-2.282 2.311 2.311 0 0 0-1.664-1.772ZM5.34 45.983a.046.046 0 0 1-.038.005l-3.896-1.047a.053.053 0 0 1-.036-.06l3.477-13.024a.056.056 0 0 1 .05-.038l.011.001h.001l3.896 1.047a.054.054 0 0 1 .036.063L5.36 45.957a.04.04 0 0 1-.021.026Zm17.165-7.102a.943.943 0 0 1-1.148.666l-3.322-.894a.682.682 0 0 0-.837.484.688.688 0 0 0 .483.84l3.776 1.018a.942.942 0 0 1 .226 1.721.935.935 0 0 1-.71.095l-.734-.198a2.983 2.983 0 0 0-.067-.02l-3.011-.81a.681.681 0 0 0-.838.484.688.688 0 0 0 .483.841l3.054.823a.944.944 0 0 1 .184 1.71.935.935 0 0 1-.71.094l-.954-.257a2.317 2.317 0 0 0-.082-.024l-1.972-.529-.005-.001a.683.683 0 0 0-.77 1.005.686.686 0 0 0 .416.32l2.028.546a.938.938 0 0 1 .6 1.161.94.94 0 0 1-1.136.64l-4.925-1.325a6.591 6.591 0 0 1-2.62-1.357c-.793-.66-1.837-1.17-2.72-1.525l2.558-9.57c1.49.25 2.589.244 3.504-.014 1.388-.392 2.303-1.38 2.719-2.937l.616-2.316.905.243a.938.938 0 0 1 .66 1.146l-1.067 3.988a1.48 1.48 0 0 0 1.04 1.805l3.712.996a.94.94 0 0 1 .663 1.15v.001ZM7.089 34.016v.028a.687.687 0 0 1-.684.686.683.683 0 0 1-.683-.686v-.028a.687.687 0 0 1 .683-.686.683.683 0 0 1 .684.686Zm42.861 10.51-3.478-13.029a1.417 1.417 0 0 0-1.736-1.002l-3.896 1.047a1.435 1.435 0 0 0-1.003 1.743l.054.201c-2.792.446-4.05-.12-4.546-1.972l-.703-2.642a1.038 1.038 0 0 0-1.267-.732l-1.222.33a2.306 2.306 0 0 0-1.397 1.075 2.32 2.32 0 0 0-.233 1.752l1.065 3.983a.105.105 0 0 1-.011.081.101.101 0 0 1-.061.047l-3.714.998a2.3 2.3 0 0 0-1.662 1.773 2.317 2.317 0 0 0 .845 2.282 2.355 2.355 0 0 0-.5 1.3 2.315 2.315 0 0 0 .8 1.897c.27.233.592.4.938.486a2.304 2.304 0 0 0 .662 2.402c.332.298.743.495 1.183.564a2.317 2.317 0 0 0 .608 2.22 2.3 2.3 0 0 0 2.217.591l4.925-1.325a7.897 7.897 0 0 0 3.138-1.626c.52-.432 1.288-.864 2.205-1.245l.155.58a1.422 1.422 0 0 0 1.366 1.057c.124 0 .248-.016.369-.049l3.898-1.047a1.418 1.418 0 0 0 1.001-1.74Zm-9.866 1.388a6.593 6.593 0 0 1-2.62 1.357l-4.924 1.325a.937.937 0 0 1-1.145-.666.943.943 0 0 1 .617-1.137l2.02-.544h.002a.684.684 0 0 0 .484-.84.686.686 0 0 0-.838-.485l-1.978.531a2.268 2.268 0 0 0-.068.02l-.967.26a.932.932 0 0 1-.987-.335.94.94 0 0 1-.065-1.042.929.929 0 0 1 .522-.426l3.06-.824a.684.684 0 0 0 .482-.84.686.686 0 0 0-.837-.485l-3.014.81a4.215 4.215 0 0 0-.072.021l-.728.196a.933.933 0 0 1-.986-.336.94.94 0 0 1 .5-1.48l3.78-1.017a.684.684 0 0 0 .482-.84.686.686 0 0 0-.837-.485l-3.324.894a.933.933 0 0 1-1.148-.664.945.945 0 0 1 .335-.989.936.936 0 0 1 .328-.162l3.71-.997a1.483 1.483 0 0 0 1.041-1.807l-1.066-3.985a.944.944 0 0 1 .664-1.147l.9-.243.617 2.317c.417 1.557 1.332 2.544 2.72 2.936.916.258 2.013.265 3.503.014l2.557 9.571c-.883.354-1.926.863-2.72 1.524Zm8.54-.997a.048.048 0 0 1-.03.024l-3.898 1.047a.047.047 0 0 1-.037-.005.041.041 0 0 1-.021-.03l-.346-1.293-.01-.038-3.123-11.689a.056.056 0 0 1 .036-.066l3.895-1.047a.039.039 0 0 1 .011-.001.055.055 0 0 1 .05.036l3.479 13.028a.045.045 0 0 1-.006.034Zm-4.348-10.901v.028a.687.687 0 0 1-.683.686.68.68 0 0 1-.632-.424.687.687 0 0 1-.052-.262v-.028a.688.688 0 0 1 .684-.686.683.683 0 0 1 .683.686Zm-13.345-6.639a.859.859 0 0 0 .31-.963l-1.894-5.803 4.937-3.584a.863.863 0 0 0-.512-1.558l-6.086.013-1.87-5.81a.856.856 0 0 0-.81-.598H25a.856.856 0 0 0-.818.596l-1.87 5.812-6.088-.013a.856.856 0 0 0-.818.597.865.865 0 0 0 .314.964l4.93 3.58-1.89 5.805a.865.865 0 0 0 .31.966.856.856 0 0 0 1.011-.002L25 23.78l4.92 3.602a.857.857 0 0 0 1.012-.005Zm-5.53-5a.682.682 0 0 0-.805 0l-4.047 2.961 1.556-4.777a.688.688 0 0 0-.248-.769l-4.06-2.95 5.01.011h.002a.682.682 0 0 0 .65-.475L25 11.596l1.539 4.782a.685.685 0 0 0 .652.476l5.013-.01-4.062 2.948a.685.685 0 0 0-.249.769l1.56 4.78-4.05-2.964Zm8.698-2.862a.812.812 0 0 0 .296.908l3.468 2.518-1.329 4.083a.816.816 0 0 0 .77 1.066.808.808 0 0 0 .477-.155l3.458-2.533 3.462 2.534a.81.81 0 0 0 1.247-.41.817.817 0 0 0 0-.504l-1.332-4.081 3.468-2.517a.813.813 0 0 0-.476-1.473l-4.282.007-1.314-4.087-.002-.006a.814.814 0 0 0-1.25-.4.805.805 0 0 0-.29.406l-1.317 4.087-4.283-.007a.807.807 0 0 0-.771.564Zm5.55.816h.002a.683.683 0 0 0 .65-.475l.94-2.916.937 2.916a.686.686 0 0 0 .651.475h.001l3.056-.005-2.475 1.796a.686.686 0 0 0-.249.77l.95 2.915-2.47-1.808a.682.682 0 0 0-.806 0l-2.467 1.806.949-2.914a.689.689 0 0 0-.25-.769l-2.474-1.796 3.056.005Zm-37.736.092 3.468 2.518-1.33 4.082-.006.015a.818.818 0 0 0 .306.9.81.81 0 0 0 .949-.003l3.458-2.533 3.461 2.534a.811.811 0 0 0 1.252-.898l-.005-.016-1.331-4.081 3.467-2.517a.813.813 0 0 0-.476-1.473l-4.282.007-1.314-4.087-.002-.006a.815.815 0 0 0-.774-.557.81.81 0 0 0-.769.563l-1.313 4.087-4.283-.007a.809.809 0 0 0-.772.562.816.816 0 0 0 .296.91Zm5.255-.092h.001a.682.682 0 0 0 .65-.475l.939-2.919.938 2.92a.686.686 0 0 0 .651.475h.001l3.056-.006-2.475 1.797a.685.685 0 0 0-.25.769l.952 2.915L9.16 24a.682.682 0 0 0-.806 0l-2.47 1.808.951-2.915a.688.688 0 0 0-.249-.77l-2.475-1.796 3.056.005Zm26.123-9.51 4.725-2.738a.682.682 0 0 1 1.02.504.687.687 0 0 1-.336.684l-4.725 2.739a.682.682 0 0 1-1.02-.505.687.687 0 0 1 .336-.684ZM16.966 4.377a.688.688 0 0 1 .25-.937.682.682 0 0 1 .934.251l2.73 4.744a.688.688 0 0 1-.25.937.682.682 0 0 1-.935-.251l-2.73-4.744Zm12.326 3.411 2.727-4.744a.686.686 0 0 1 .934-.251.684.684 0 0 1 .25.937l-2.726 4.744a.684.684 0 1 1-1.185-.686Zm-17.6 1.669a.685.685 0 0 1 .935-.251l4.725 2.739a.685.685 0 0 1 .074 1.138.681.681 0 0 1-.758.05l-4.726-2.739a.682.682 0 0 1-.335-.684.687.687 0 0 1 .086-.253Zm12.623-2.293V1.686A.687.687 0 0 1 25 1a.682.682 0 0 1 .684.686v5.477a.687.687 0 0 1-.684.686.683.683 0 0 1-.684-.686Z" fill="#13141A"/></g></svg>