<svg width="28" height="28" fill="none" xmlns="http://www.w3.org/2000/svg"><path d="m27.265 21.6-5.667-3.78a1.654 1.654 0 0 0-2.215.36l-1.65 2.122a.705.705 0 0 1-.905.19l-.315-.172c-1.04-.568-2.336-1.274-4.946-3.885-2.61-2.61-3.317-3.907-3.884-4.946l-.173-.314a.706.706 0 0 1 .187-.908l2.121-1.65a1.655 1.655 0 0 0 .36-2.215L6.398.735a1.646 1.646 0 0 0-2.217-.5L1.81 1.66A3.343 3.343 0 0 0 .287 3.637C-.567 6.747.075 12.113 7.98 20.02c6.289 6.288 10.97 7.979 14.188 7.979a8.265 8.265 0 0 0 2.193-.287 3.34 3.34 0 0 0 1.978-1.524l1.425-2.368a1.646 1.646 0 0 0-.499-2.22Zm-.305 1.74-1.422 2.37a2.412 2.412 0 0 1-1.423 1.103c-2.87.788-7.885.135-15.474-7.454C1.05 11.769.399 6.755 1.187 3.884c.17-.6.566-1.11 1.104-1.425l2.37-1.422a.714.714 0 0 1 .963.217l2.053 3.082L9.4 6.921a.718.718 0 0 1-.156.961l-2.122 1.65a1.633 1.633 0 0 0-.432 2.096l.168.306c.597 1.094 1.338 2.455 4.045 5.161 2.707 2.706 4.067 3.448 5.16 4.044l.306.169a1.633 1.633 0 0 0 2.096-.433l1.65-2.121a.719.719 0 0 1 .962-.156l5.667 3.78a.713.713 0 0 1 .216.962ZM15.866 4.668a7.941 7.941 0 0 1 7.932 7.932.467.467 0 1 0 .933 0 8.875 8.875 0 0 0-8.865-8.865.467.467 0 1 0 0 .933Z" fill="#16191E"/><path d="M15.866 7.467a5.139 5.139 0 0 1 5.133 5.133.467.467 0 1 0 .933 0 6.073 6.073 0 0 0-6.066-6.066.467.467 0 1 0 0 .933Z" fill="#16191E"/><path d="M15.866 10.267a2.336 2.336 0 0 1 2.333 2.333.467.467 0 0 0 .933 0 3.27 3.27 0 0 0-3.266-3.266.467.467 0 1 0 0 .933Z" fill="#16191E"/></svg>