<svg width="18" height="18" fill="none" xmlns="http://www.w3.org/2000/svg"><mask id="a" style="mask-type:alpha" maskUnits="userSpaceOnUse" x="0" y="0" width="18" height="18"><path fill="#D9D9D9" d="M0 0h18v18H0z"/></mask><g mask="url(#a)" fill="#EFB93F"><path d="M17.099 15.556v-.039c0-.329-.126-.644-.351-.877a1.18 1.18 0 0 0-.848-.364V8.534l1.08-.837a.308.308 0 0 0 .12-.25.319.319 0 0 0-.123-.25L14.4 5.25V1.862c.08 0 .156-.033.212-.09a.316.316 0 0 0 .088-.22V.31a.316.316 0 0 0-.088-.22A.295.295 0 0 0 14.4 0h-3a.295.295 0 0 0-.212.09.316.316 0 0 0-.088.22v1.242c0 .082.032.161.088.22.056.057.132.09.212.09v1.12l-2.223-1.68a.293.293 0 0 0-.354 0l-7.8 5.896a.308.308 0 0 0-.123.248.32.32 0 0 0 .12.25l1.08.838v5.742a1.18 1.18 0 0 0-.848.364 1.265 1.265 0 0 0-.35.916c-.284.076-.53.255-.695.505a1.275 1.275 0 0 0 .2 1.63c.219.199.501.31.793.309h15.6c.292 0 .574-.11.793-.31a1.275 1.275 0 0 0 .2-1.629c-.164-.25-.411-.43-.694-.505ZM11.699.621h2.4v.62h-2.4v-.62Zm.3 2.793V1.862h1.8v2.934l-1.828-1.382H12ZM9 1.936l7.295 5.516-.698.542-6.42-4.831a.293.293 0 0 0-.353 0l-6.42 4.83-.7-.541L9 1.936ZM.6 16.76c0-.163.063-.32.173-.436a.591.591 0 0 1 .418-.185h.001l.046.005a.292.292 0 0 0 .26-.124.317.317 0 0 0 .041-.292.632.632 0 0 1 .137-.649.59.59 0 0 1 .424-.181v2.482h-.9a.59.59 0 0 1-.424-.182.633.633 0 0 1-.176-.438Zm12.9.62H9.9v-6.827h3.6v6.827Zm.6 0v-7.138a.316.316 0 0 0-.088-.22.295.295 0 0 0-.212-.09H9.6a.295.295 0 0 0-.212.09.316.316 0 0 0-.088.22v7.138H2.7V8.537L9 3.797l6.3 4.74v8.842h-1.2Zm2.7 0h-.9v-2.482a.59.59 0 0 1 .424.182.632.632 0 0 1 .137.648.32.32 0 0 0 .042.293c.03.04.069.074.114.095a.29.29 0 0 0 .145.028.585.585 0 0 0 .046-.005.59.59 0 0 1 .424.185.632.632 0 0 1-.007.878.59.59 0 0 1-.425.178Z"/><path d="M7.8 9.932H4.2a.295.295 0 0 0-.213.09.316.316 0 0 0-.088.22v4.345c0 .082.032.161.088.22.057.057.133.09.212.09h3.6c.08 0 .156-.033.212-.09a.316.316 0 0 0 .088-.22v-4.345a.316.316 0 0 0-.088-.22.295.295 0 0 0-.212-.09Zm-.3 2.172H6.3v-1.552h1.2v1.552Zm-1.8-1.552v1.552H4.5v-1.552h1.2Zm-1.2 2.173h1.2v1.552H4.5v-1.552Zm1.8 1.552v-1.552h1.2v1.552H6.3ZM11.078 13.774a.314.314 0 0 0-.162-.406.296.296 0 0 0-.392.168c-.063.159.01.34.162.406a.297.297 0 0 0 .392-.168Z"/></g></svg>